<svg width="48" height="51" viewBox="0 0 48 51" fill="none" xmlns="http://www.w3.org/2000/svg">
<path fill-rule="evenodd" clip-rule="evenodd" d="M42.0162 3.22898C42.011 3.22786 42.0057 3.23003 42.0028 3.23444V3.23444C41.9952 3.24608 42.0091 3.25979 42.0206 3.25199V3.25199C42.0299 3.24571 42.0271 3.23137 42.0162 3.22898V3.22898ZM20.0608 36.9089C20.1185 36.9362 20.1459 37.003 20.1239 37.063L18.9662 40.2144C18.7461 40.8135 19.136 41.4627 19.7683 41.5499L21.0599 41.7279L19.3458 41.7335C19.0469 41.7345 18.8465 42.0409 18.9655 42.3151L19.0472 42.5032C19.0492 42.5078 19.0533 42.5111 19.0582 42.5122V42.5122C19.0666 42.514 19.0719 42.5223 19.0701 42.5308L19.0681 42.5397C19.067 42.5448 19.0675 42.5501 19.0696 42.5548L19.1557 42.7532C19.1767 42.8014 19.2292 42.8278 19.2804 42.8158L19.2884 42.8139C19.4076 42.786 19.4734 42.9471 19.3688 43.0106L19.3304 43.0339C19.3065 43.0485 19.297 43.0786 19.3081 43.1043V43.1043C19.3342 43.1643 19.2541 43.2135 19.2134 43.1623V43.1623C19.1959 43.1402 19.1647 43.1347 19.1406 43.1493L18.995 43.2377C18.9367 43.2731 18.8955 43.3309 18.881 43.3975L18.8624 43.4827C18.8091 43.7269 18.568 43.8817 18.3238 43.8284L18.2919 43.8214C18.1702 43.7949 18.043 43.8161 17.9365 43.8808L17.6369 44.0628C17.6054 44.082 17.5859 44.1159 17.5852 44.1528V44.1528C17.5847 44.1821 17.5961 44.2103 17.6168 44.2309L19.6956 46.3044C20.1441 46.7518 20.8901 46.6748 21.2377 46.1453L32.7529 28.6074C32.8642 28.4379 32.9213 28.2386 32.9167 28.0358L32.8748 26.1929C32.8654 25.7821 33.243 25.4709 33.6445 25.5585V25.5585C33.9732 25.6302 34.3007 25.4329 34.391 25.1089L36.2747 18.3527L35.9793 20.2103C35.8101 21.2742 37.2115 21.8168 37.8028 20.9162L47.0319 6.86009C47.0944 6.76484 47.0931 6.64122 47.0286 6.54732L46.9895 6.49054C46.9277 6.40051 46.8065 6.37407 46.7127 6.43014V6.43014C46.5353 6.53622 46.329 6.34542 46.421 6.16032L46.497 6.00743C46.5386 5.92383 46.5315 5.82428 46.4786 5.74735L46.0556 5.13192C46.0552 5.13132 46.0557 5.13052 46.0564 5.13068V5.13068C46.0572 5.13085 46.0577 5.12989 46.0571 5.12932L45.9574 5.02981C45.9488 5.02119 45.9368 5.01675 45.9246 5.01765L45.7971 5.02702C45.6802 5.03561 45.5771 5.10715 45.5282 5.21373L45.4453 5.39437C45.1618 6.01222 44.2418 5.84715 44.1908 5.16927L44.16 4.75988C44.1331 4.40326 43.8626 4.11296 43.5087 4.06112L42.2707 3.87975C41.8859 3.82337 41.5033 3.99523 41.2898 4.32033L20.0103 36.7296C19.9692 36.7923 19.993 36.8769 20.0608 36.9089V36.9089ZM18.6166 42.4111C18.6181 42.413 18.6164 42.4158 18.614 42.4153V42.4153C18.613 42.4151 18.6122 42.4143 18.612 42.4133V42.4133C18.6114 42.4106 18.6149 42.409 18.6166 42.4111V42.4111Z" fill="#EA0000"/>
<path d="M18.5312 36.901C18.1314 37.5708 17.1527 37.5452 16.7883 36.8554L0.921808 6.81252C0.539246 6.08815 1.14223 5.23629 1.95258 5.35631L4.67494 5.75951C4.98349 5.80521 5.25305 5.99227 5.40383 6.26532L20.2223 33.1002C20.3943 33.4116 20.3879 33.7908 20.2056 34.0962L18.5312 36.901Z" fill="white"/>
<path d="M22.7236 6.15581C22.893 5.81703 23.2393 5.60303 23.618 5.60303H37.1958C37.9812 5.60303 38.46 6.46698 38.0438 7.13303L36.7938 9.13303C36.611 9.42541 36.2905 9.60303 35.9458 9.60303H22.618C21.8747 9.60303 21.3912 8.82072 21.7236 8.15581L22.7236 6.15581Z" fill="white"/>
<path d="M29.7062 36.073C29.889 35.7806 30.2095 35.603 30.5542 35.603H44.1958C44.9812 35.603 45.46 36.467 45.0438 37.133L43.7938 39.133C43.611 39.4254 43.2905 39.603 42.9458 39.603H29.3042C28.5188 39.603 28.04 38.7391 28.4562 38.073L29.7062 36.073Z" fill="white"/>
</svg>
