<svg width="191" height="29" viewBox="0 0 191 29" fill="none" xmlns="http://www.w3.org/2000/svg">
<path d="M5.15391 23.4049C4.89024 23.4049 4.66563 23.3121 4.48008 23.1266C4.29453 22.941 4.20176 22.7164 4.20176 22.4527C4.20176 22.316 4.23106 22.1842 4.28965 22.0572C5.00254 20.5045 5.71543 18.9518 6.42832 17.399C7.14121 15.8365 7.8541 14.2789 8.56699 12.7262L0.319923 2.70663C0.173439 2.52109 0.100197 2.32578 0.100197 2.1207C0.100197 1.86679 0.202736 1.64218 0.407814 1.44687C0.612892 1.25156 0.842384 1.1539 1.09629 1.1539C1.36973 1.1539 1.59922 1.27109 1.78477 1.50546L9.4459 10.7926C10.1979 9.13242 10.9547 7.47714 11.7164 5.82675C12.4781 4.17636 13.235 2.52597 13.9869 0.87558C14.0553 0.729095 14.1676 0.602142 14.3238 0.49472C14.4801 0.377533 14.6559 0.318939 14.8512 0.318939C15.1148 0.318939 15.3395 0.411713 15.525 0.59726C15.7105 0.782806 15.8033 1.00742 15.8033 1.27109C15.8033 1.40781 15.774 1.53964 15.7154 1.6666L6.01817 22.8482C5.94981 22.9947 5.8375 23.1217 5.68125 23.2291C5.525 23.3463 5.34922 23.4049 5.15391 23.4049ZM19.3834 17.2818C19.6666 18.2975 20.2135 19.0934 21.024 19.6695C21.8443 20.2457 22.8746 20.5338 24.1148 20.5338C25.775 20.5338 27.7037 19.9918 29.901 18.9078C30.0377 18.8394 30.1793 18.8053 30.3258 18.8053C30.5797 18.8053 30.7994 18.8932 30.985 19.0689C31.1803 19.2447 31.2779 19.4644 31.2779 19.7281C31.2779 20.148 31.1021 20.4459 30.7506 20.6217C29.6373 21.1685 28.5045 21.608 27.3521 21.94C26.1998 22.2721 25.0865 22.4381 24.0123 22.4381C22.9088 22.4381 21.8785 22.233 20.9215 21.8228C19.9742 21.4127 19.1637 20.7291 18.4898 19.7721C18.109 19.235 17.816 18.6637 17.6109 18.0582C17.4059 17.4527 17.3033 16.774 17.3033 16.0221C17.3033 15.69 17.3229 15.3434 17.3619 14.982C17.5865 13.1168 18.3629 11.5201 19.691 10.192C21.4098 8.47324 23.6705 7.61386 26.4732 7.61386C27.5475 7.61386 28.4898 7.82382 29.3004 8.24374C30.1109 8.6539 30.6871 9.23984 31.0289 10.0016C31.2145 10.4215 31.3072 10.8658 31.3072 11.3346C31.3072 12.1353 31.0973 12.8434 30.6773 13.4586C30.2672 14.0641 29.6813 14.6256 28.9195 15.1432C26.7809 16.5885 23.6803 17.3111 19.6178 17.3111C19.5592 17.3111 19.4811 17.3014 19.3834 17.2818ZM19.2223 15.4947C19.359 15.4361 19.4908 15.4068 19.6178 15.4068C23.2994 15.4068 26.0484 14.7916 27.8648 13.5611C28.3727 13.2193 28.7584 12.8727 29.0221 12.5211C29.2857 12.1598 29.4176 11.7447 29.4176 11.276C29.4176 11.0025 29.3541 10.7828 29.2271 10.6168C29.11 10.4508 28.9537 10.2945 28.7584 10.148C28.2115 9.72812 27.4547 9.51816 26.4879 9.51816C25.1891 9.51816 24.0074 9.7623 22.943 10.2506C21.8785 10.7291 21.0143 11.4176 20.3502 12.316C19.6959 13.2047 19.3199 14.2643 19.2223 15.4947ZM48.7008 12.067C48.7301 12.1744 48.7447 12.2867 48.7447 12.4039C48.7447 12.6285 48.7008 12.8873 48.6129 13.1803C48.4664 14.7232 48.3932 16.1002 48.3932 17.3111C48.3932 19.0006 48.5348 20.3727 48.818 21.4273C48.8473 21.525 48.8619 21.6178 48.8619 21.7057C48.8619 21.9791 48.7545 22.1939 48.5396 22.3502C48.3346 22.5162 48.11 22.5992 47.8658 22.5992C47.6803 22.5992 47.5045 22.5455 47.3385 22.4381C47.1725 22.3307 47.0553 22.1549 46.9869 21.9107C46.6842 20.7877 46.523 19.3619 46.5035 17.6334C45.5758 19.1275 44.5797 20.3043 43.5152 21.1637C42.8707 21.6812 42.2066 21.9742 41.523 22.0426C41.1129 22.1598 40.7125 22.2184 40.3219 22.2184C39.7652 22.2184 39.2574 22.1158 38.7984 21.9107C38.3395 21.7057 37.9439 21.4469 37.6119 21.1344C37.0162 20.5777 36.5523 19.86 36.2203 18.981C35.898 18.0924 35.7369 17.067 35.7369 15.9049C35.7369 14.4107 36.0836 12.985 36.777 11.6275C37.7926 9.63535 39.3355 8.30722 41.4059 7.64316C42.1969 7.37949 42.9586 7.24765 43.691 7.24765C44.609 7.24765 45.4732 7.46249 46.2838 7.89218C47.6998 8.64413 48.5055 10.0357 48.7008 12.067ZM46.7965 12.1988C46.7086 11.2613 46.401 10.5191 45.8736 9.97226C45.3561 9.42538 44.648 9.15195 43.7496 9.15195C43.2125 9.15195 42.6266 9.25449 41.9918 9.45956C40.4195 9.95761 39.2721 10.9195 38.5494 12.3453C37.9439 13.5465 37.6412 14.7428 37.6412 15.9342C37.6412 16.774 37.7535 17.526 37.9781 18.19C38.2027 18.8541 38.4908 19.3521 38.8424 19.6842C39.2818 20.0943 39.7799 20.2994 40.3365 20.2994C40.5221 20.2994 40.6979 20.2799 40.8639 20.2408C41.0396 20.192 41.235 20.1578 41.4498 20.1383C41.6158 20.1187 41.943 19.9185 42.4313 19.5377C42.9195 19.1471 43.4371 18.5953 43.984 17.8824C44.5406 17.1695 45.0631 16.3687 45.5514 15.4801C46.0396 14.5914 46.4352 13.6978 46.7379 12.7994C46.7477 12.7018 46.7574 12.6041 46.7672 12.5064C46.777 12.399 46.7867 12.2965 46.7965 12.1988ZM53.277 8.99081C53.277 8.62949 53.3551 8.31699 53.5113 8.05331C53.6773 7.77988 53.9459 7.64316 54.317 7.64316C54.5709 7.64316 54.7809 7.7457 54.9469 7.95078C55.1227 8.15585 55.2252 8.39023 55.2545 8.6539C55.2838 8.89804 55.3082 9.19101 55.3277 9.53281C55.357 9.86484 55.3814 10.2457 55.401 10.6754C56.7389 8.46835 58.4918 7.36484 60.6598 7.36484C61.9977 7.36484 63.1646 7.62363 64.1607 8.1412C65.1568 8.64902 65.9771 9.37656 66.6217 10.3238C67.0709 10.9879 67.398 11.7008 67.6031 12.4625C67.818 13.2242 67.9254 13.9957 67.9254 14.7769C67.9254 15.8316 67.7496 16.8619 67.398 17.8678C67.0563 18.8736 66.5826 19.7574 65.9771 20.5191C64.9225 21.8375 63.5602 22.4967 61.8902 22.4967C61.7438 22.4967 61.6021 22.4918 61.4654 22.482C59.5807 22.3648 57.652 21.3102 55.6793 19.318C55.6988 19.9234 55.7135 20.6363 55.7232 21.4566C55.733 22.2672 55.7428 23.1803 55.7525 24.1959L55.7965 27.7701C55.7965 28.024 55.7037 28.2486 55.5182 28.4439C55.3326 28.6393 55.1129 28.7369 54.859 28.7369C54.5953 28.7369 54.3658 28.6441 54.1705 28.4586C53.985 28.2828 53.8922 28.0631 53.8922 27.7994L53.8482 24.2105C53.8189 22.0719 53.7896 20.2506 53.7604 18.7467C53.7408 17.2428 53.7164 16.0562 53.6871 15.1871C53.6188 14.9918 53.5846 14.5816 53.5846 13.9566C53.5846 13.9176 53.5846 13.8785 53.5846 13.8394C53.5846 13.0973 53.5309 12.2769 53.4234 11.3785C53.3258 10.4801 53.277 9.68417 53.277 8.99081ZM60.6451 9.26913C58.5846 9.26913 57.0025 10.8951 55.899 14.1471C55.7721 14.5279 55.6695 14.8258 55.5914 15.0406C55.6012 15.2555 55.6061 15.4752 55.6061 15.6998C55.6061 15.9244 55.6109 16.149 55.6207 16.3736C57.7887 19.0494 59.7955 20.4557 61.6412 20.5924C61.7096 20.5924 61.7779 20.5924 61.8463 20.5924C62.6959 20.5924 63.4332 20.3141 64.0582 19.7574C64.6832 19.191 65.1617 18.4732 65.4938 17.6041C65.8355 16.7252 66.0064 15.8121 66.0064 14.8648C66.0064 13.2047 65.523 11.857 64.5563 10.8219C63.5992 9.78671 62.2955 9.26913 60.6451 9.26913ZM75.607 20.9879C75.607 21.4078 75.4557 21.774 75.1529 22.0865C74.86 22.399 74.4791 22.5553 74.0104 22.5553C73.4732 22.5553 73.068 22.3795 72.7945 22.0279C72.5211 21.6764 72.3844 21.2516 72.3844 20.7535C72.3844 20.5191 72.4137 20.2799 72.4723 20.0357C72.5113 19.86 72.5992 19.6402 72.7359 19.3766C72.8727 19.1031 73.0387 18.8639 73.234 18.6588C73.4293 18.4537 73.6344 18.3512 73.8492 18.3512C74.152 18.3512 74.4352 18.5025 74.6988 18.8053C74.9723 19.0982 75.192 19.4498 75.358 19.86C75.524 20.2701 75.607 20.6461 75.607 20.9879ZM83.2887 20.9879C83.2887 21.4078 83.1373 21.774 82.8346 22.0865C82.5416 22.399 82.1607 22.5553 81.692 22.5553C81.1549 22.5553 80.7496 22.3795 80.4762 22.0279C80.2027 21.6764 80.066 21.2516 80.066 20.7535C80.066 20.5191 80.0953 20.2799 80.1539 20.0357C80.193 19.86 80.2809 19.6402 80.4176 19.3766C80.5543 19.1031 80.7203 18.8639 80.9156 18.6588C81.1109 18.4537 81.316 18.3512 81.5309 18.3512C81.8336 18.3512 82.1168 18.5025 82.3805 18.8053C82.6539 19.0982 82.8736 19.4498 83.0396 19.86C83.2057 20.2701 83.2887 20.6461 83.2887 20.9879ZM97.4361 4.4498C97.4361 4.08847 97.5436 3.74179 97.7584 3.40976C97.983 3.06796 98.2564 2.79453 98.5787 2.58945C98.901 2.3746 99.2184 2.26718 99.5309 2.26718C99.9898 2.26718 100.376 2.46249 100.688 2.85312C101.01 3.23398 101.171 3.61484 101.171 3.9957C101.171 4.35703 101.059 4.68906 100.835 4.99179C100.61 5.29453 100.307 5.51425 99.9264 5.65097C99.4967 5.86581 99.1158 5.97324 98.7838 5.97324C98.4225 5.97324 98.1051 5.82675 97.8316 5.53378C97.568 5.23105 97.4361 4.86972 97.4361 4.4498ZM99.8092 19.86C99.7799 20.6412 99.6725 21.2662 99.4869 21.735C99.3014 22.1939 98.9791 22.4234 98.5201 22.4234C98.2662 22.4234 98.0416 22.3307 97.8463 22.1451C97.651 21.9596 97.5533 21.7301 97.5533 21.4566C97.5533 21.3297 97.5777 21.2027 97.6266 21.0758C97.7145 20.8707 97.7828 20.4654 97.8316 19.86C97.8902 19.2447 97.9342 18.5221 97.9635 17.692C97.9928 16.8619 98.0123 16.0074 98.0221 15.1285C98.0416 14.2398 98.0514 13.4146 98.0514 12.6529C98.0514 11.8912 98.0514 11.2857 98.0514 10.8365C98.0514 10.0064 98.0465 9.21054 98.0367 8.44882C98.0367 8.13632 98.1344 7.90195 98.3297 7.7457C98.5348 7.58945 98.7594 7.51132 99.0035 7.51132C99.2379 7.51132 99.4479 7.58945 99.6334 7.7457C99.8287 7.89218 99.9264 8.11679 99.9264 8.41953C99.9361 8.9371 99.941 9.44492 99.941 9.94296C99.9508 10.441 99.9557 10.9293 99.9557 11.4078C99.9557 12.9996 99.9459 14.44 99.9264 15.7291C99.9166 17.0182 99.8775 18.3951 99.8092 19.86ZM110.875 21.7789C110.875 22.0426 110.777 22.2672 110.582 22.4527C110.386 22.6383 110.162 22.731 109.908 22.731C109.752 22.731 109.605 22.692 109.468 22.6139C108.209 21.94 107.447 20.0992 107.183 17.0914C107.125 16.4371 107.081 15.734 107.051 14.982C107.022 14.2203 107.007 13.4049 107.007 12.5357C107.007 11.6959 107.022 10.7779 107.051 9.78183C106.573 9.78183 106.094 9.78183 105.616 9.78183C105.137 9.77206 104.654 9.76718 104.166 9.76718C103.912 9.76718 103.687 9.66953 103.492 9.47421C103.306 9.26913 103.213 9.03964 103.213 8.78574C103.213 8.55136 103.306 8.3414 103.492 8.15585C103.687 7.96054 103.912 7.86288 104.166 7.86288L107.11 7.87753C107.12 7.58456 107.134 7.13535 107.154 6.52988C107.173 5.92441 107.193 5.27988 107.213 4.59628C107.232 3.91269 107.242 3.3121 107.242 2.79453C107.242 2.63828 107.237 2.49667 107.227 2.36972C107.227 2.24277 107.227 2.12558 107.227 2.01816C107.227 1.72519 107.325 1.50058 107.52 1.34433C107.725 1.18808 107.945 1.10995 108.179 1.10995C108.414 1.10995 108.629 1.1832 108.824 1.32968C109.019 1.47617 109.122 1.70078 109.131 2.00351C109.141 2.19882 109.146 2.44785 109.146 2.75058C109.146 3.28769 109.136 3.89804 109.117 4.58163C109.097 5.26523 109.078 5.91464 109.058 6.52988C109.039 7.13535 109.024 7.58945 109.014 7.89218L111.226 7.90683C111.529 7.90683 111.758 8.00937 111.915 8.21445C112.071 8.41953 112.149 8.63925 112.149 8.87363C112.149 9.108 112.071 9.32285 111.915 9.51816C111.768 9.71347 111.544 9.81113 111.241 9.81113C111.231 9.81113 111.226 9.81113 111.226 9.81113C110.845 9.81113 110.464 9.81113 110.084 9.81113C109.713 9.80136 109.337 9.79648 108.956 9.79648C108.936 10.6754 108.926 11.5055 108.926 12.2867C108.926 15.8219 109.166 18.3072 109.644 19.7428C109.869 20.3971 110.103 20.7877 110.347 20.9146C110.494 20.9928 110.616 21.11 110.713 21.2662C110.821 21.4225 110.875 21.5934 110.875 21.7789ZM117.97 1.25644C118.693 1.25644 119.186 1.53476 119.45 2.0914C119.723 2.63828 119.86 3.31699 119.86 4.12753C119.86 4.67441 119.806 5.26523 119.699 5.89999C119.601 6.53476 119.469 7.1207 119.303 7.65781C119.147 8.18515 118.986 8.58066 118.82 8.84433C118.576 9.21542 118.283 9.40097 117.941 9.40097C117.511 9.40097 117.296 9.18124 117.296 8.74179C117.296 8.45859 117.365 8.12167 117.502 7.73105C117.638 7.34042 117.707 6.9791 117.707 6.64706C117.707 5.96347 117.502 5.22617 117.091 4.43515C116.769 3.81015 116.608 3.25839 116.608 2.77988C116.608 2.37949 116.72 2.02792 116.945 1.72519C117.179 1.41269 117.521 1.25644 117.97 1.25644ZM124.29 11.525C124.29 10.6168 124.529 9.85507 125.007 9.23984C125.486 8.61484 126.106 8.14609 126.868 7.83359C127.629 7.52109 128.44 7.36484 129.299 7.36484C132.092 7.36484 134.421 8.25351 136.287 10.0309C136.482 10.2164 136.58 10.4361 136.58 10.69C136.58 10.9342 136.492 11.1539 136.316 11.3492C136.15 11.5445 135.93 11.6471 135.657 11.6568C135.383 11.6568 135.159 11.5738 134.983 11.4078C134.426 10.8707 133.674 10.3824 132.727 9.94296C131.79 9.49374 130.833 9.26913 129.856 9.26913C127.844 9.26913 126.658 9.81601 126.296 10.9098C126.218 11.1441 126.179 11.3687 126.179 11.5836C126.179 12.1695 126.453 12.7115 127 13.2096C127.605 13.7662 128.621 14.0445 130.046 14.0445C130.281 14.0445 130.53 14.0348 130.794 14.0152C131.057 13.9957 131.321 13.9859 131.585 13.9859C132.844 13.9859 133.865 14.1764 134.646 14.5572C135.427 14.9283 136.023 15.524 136.433 16.3443C136.697 16.8912 136.829 17.4234 136.829 17.941C136.829 18.1754 136.804 18.4098 136.755 18.6441C136.433 20.0699 135.549 21.11 134.104 21.7643C133.196 22.1842 132.234 22.3941 131.218 22.3941C131.013 22.3941 130.803 22.3844 130.588 22.3648C128.274 22.15 126.35 21.3687 124.817 20.0211C124.602 19.8355 124.495 19.5963 124.495 19.3033C124.495 19.0396 124.588 18.8199 124.773 18.6441C124.968 18.4586 125.193 18.3658 125.447 18.3658C125.691 18.3658 125.901 18.4391 126.077 18.5855C126.76 19.1812 127.522 19.6451 128.362 19.9771C129.202 20.3092 130.164 20.4752 131.248 20.4752C132.605 20.4752 133.64 20.0846 134.353 19.3033C134.744 18.8736 134.939 18.4342 134.939 17.985C134.939 17.7213 134.871 17.4527 134.734 17.1793C134.314 16.3199 133.425 15.8902 132.068 15.8902C131.775 15.8902 131.472 15.9 131.16 15.9195C130.847 15.9293 130.564 15.9342 130.31 15.9342C129.148 15.9342 128.289 15.8609 127.732 15.7144C126.961 15.5094 126.277 15.1334 125.681 14.5865C125.086 14.0396 124.675 13.3853 124.451 12.6236C124.343 12.2623 124.29 11.8961 124.29 11.525ZM157.29 7.89218C158.003 7.89218 158.657 8.08749 159.253 8.47812C159.848 8.85898 160.371 9.35703 160.82 9.97226C161.279 10.5875 161.66 11.2271 161.962 11.8912C162.519 10.2213 163.305 9.02499 164.321 8.30234C164.975 7.83359 165.659 7.59921 166.372 7.59921C167.016 7.59921 167.636 7.77988 168.232 8.1412C168.837 8.50253 169.384 8.97617 169.873 9.5621C170.459 10.275 170.918 11.149 171.25 12.1842C171.582 13.2193 171.748 14.3912 171.748 15.6998C171.748 17.7115 171.211 19.8111 170.136 21.9986C169.961 22.3307 169.672 22.4967 169.272 22.4967C168.989 22.4967 168.73 22.3648 168.496 22.1012C168.261 21.8375 168.237 21.5201 168.422 21.149C169.37 19.235 169.843 17.4234 169.843 15.7144C169.843 14.6305 169.707 13.6637 169.433 12.8141C169.17 11.9644 168.803 11.2516 168.335 10.6754C167.719 9.92343 167.075 9.54745 166.401 9.54745C165.649 9.54745 165.009 10.0064 164.482 10.9244C164.062 11.6666 163.745 12.4674 163.53 13.3268C163.325 14.1861 163.183 15.0894 163.105 16.0367C163.164 16.4859 163.208 16.9352 163.237 17.3844C163.276 17.8336 163.296 18.2975 163.296 18.776C163.296 19.1861 163.281 19.6158 163.252 20.065C163.232 20.5143 163.188 20.9977 163.12 21.5152C163.09 21.7887 162.983 21.9937 162.797 22.1305C162.612 22.2574 162.407 22.3209 162.182 22.3209C161.958 22.3209 161.748 22.2525 161.552 22.1158C161.357 21.9693 161.245 21.7545 161.215 21.4713C161.147 20.3678 161.113 19.3375 161.113 18.3805C161.113 17.5602 161.137 16.7935 161.186 16.0807C160.913 14.1959 160.4 12.6969 159.648 11.5836C158.837 10.3727 158.076 9.76718 157.363 9.76718C156.757 9.76718 156.191 10.2213 155.664 11.1295C155.078 12.1451 154.658 13.5953 154.404 15.4801C154.414 16.066 154.419 16.6227 154.419 17.15C154.419 18.4488 154.379 19.567 154.301 20.5045L154.213 21.5152C154.194 21.7984 154.087 22.0084 153.891 22.1451C153.706 22.2818 153.501 22.3502 153.276 22.3502C153.042 22.3502 152.827 22.2769 152.631 22.1305C152.436 21.984 152.329 21.7643 152.309 21.4713C152.28 20.7877 152.265 20.1285 152.265 19.4937C152.265 17.9605 152.343 16.5885 152.5 15.3775C152.412 12.3502 151.967 10.3336 151.167 9.32773C151.02 9.15195 150.947 8.96152 150.947 8.75644C150.947 8.49277 151.049 8.26816 151.254 8.08261C151.469 7.8873 151.704 7.78964 151.958 7.78964C152.241 7.78964 152.475 7.90683 152.661 8.1412C153.139 8.75644 153.515 9.57187 153.789 10.5875C154.687 8.79062 155.854 7.89218 157.29 7.89218ZM178.272 17.2818C178.555 18.2975 179.102 19.0934 179.913 19.6695C180.733 20.2457 181.763 20.5338 183.004 20.5338C184.664 20.5338 186.592 19.9918 188.79 18.9078C188.926 18.8394 189.068 18.8053 189.214 18.8053C189.468 18.8053 189.688 18.8932 189.874 19.0689C190.069 19.2447 190.167 19.4644 190.167 19.7281C190.167 20.148 189.991 20.4459 189.639 20.6217C188.526 21.1685 187.393 21.608 186.241 21.94C185.088 22.2721 183.975 22.4381 182.901 22.4381C181.797 22.4381 180.767 22.233 179.81 21.8228C178.863 21.4127 178.052 20.7291 177.379 19.7721C176.998 19.235 176.705 18.6637 176.5 18.0582C176.295 17.4527 176.192 16.774 176.192 16.0221C176.192 15.69 176.212 15.3434 176.251 14.982C176.475 13.1168 177.252 11.5201 178.58 10.192C180.298 8.47324 182.559 7.61386 185.362 7.61386C186.436 7.61386 187.379 7.82382 188.189 8.24374C189 8.6539 189.576 9.23984 189.918 10.0016C190.103 10.4215 190.196 10.8658 190.196 11.3346C190.196 12.1353 189.986 12.8434 189.566 13.4586C189.156 14.0641 188.57 14.6256 187.808 15.1432C185.67 16.5885 182.569 17.3111 178.506 17.3111C178.448 17.3111 178.37 17.3014 178.272 17.2818ZM178.111 15.4947C178.248 15.4361 178.379 15.4068 178.506 15.4068C182.188 15.4068 184.937 14.7916 186.754 13.5611C187.261 13.2193 187.647 12.8727 187.911 12.5211C188.174 12.1598 188.306 11.7447 188.306 11.276C188.306 11.0025 188.243 10.7828 188.116 10.6168C187.999 10.4508 187.842 10.2945 187.647 10.148C187.1 9.72812 186.343 9.51816 185.377 9.51816C184.078 9.51816 182.896 9.7623 181.832 10.2506C180.767 10.7291 179.903 11.4176 179.239 12.316C178.585 13.2047 178.209 14.2643 178.111 15.4947Z" fill="white"/>
</svg>
